# xmcd CD database file
#
# Track frame offsets:
#	150
#	18647
#	31444
#	43995
#	59318
#	72206
#	86067
#	100035
#	113668
#	126857
#	139862
#	154471
#	167618
#	181993
#	196862
#	211507
#
# Disc length: 3007 seconds
#
# Revision: 0
# Processed by: cddbd v1.5PL3 Copyright (c) Steve Scherf et al.
# Submitted via: CDex 1.50
#
DISCID=dc0bbd10
DTITLE=Miles Davis - Out Of Nowhere
DYEAR=1900
DGENRE=Jazz
TTITLE0=Out Of Nowhere
TTITLE1=Bring It On Home
TTITLE2=Milestone
TTITLE3=How Deep Is Ocean
TTITLE4=Pointless Mama Blues
TTITLE5=A Night In Tunisia
TTITLE6=That's The Staff You Gotta Watch
TTITLE7=Ornithology
TTITLE8=Don't Sing Me The Blues
TTITLE9=Drifting On A Reed
TTITLE10=My Old Flame
TTITLE11=Bluebird
TTITLE12=Baby, Won't You Make Up Your Mind
TTITLE13=Sippin' At Bells
TTITLE14=Deep Sea Blues
TTITLE15=I've Always Got The Blues
EXTD=
EXTT0=
EXTT1=
EXTT2=
EXTT3=
EXTT4=
EXTT5=
EXTT6=
EXTT7=
EXTT8=
EXTT9=
EXTT10=
EXTT11=
EXTT12=
EXTT13=
EXTT14=
EXTT15=
PLAYORDER=
